<svg role="presentation" width="50" height="50" viewBox="0 0 50 50" fill="none" xmlns="http://www.w3.org/2000/svg"><path d="M25 43C34.9411 43 43 34.9411 43 25C43 15.0589 34.9411 7 25 7C15.0589 7 7 15.0589 7 25C7 34.9411 15.0589 43 25 43Z" fill="white"/><path d="M25 0C11.16 0 0 11.2 0 25C0 38.8 11.2 50 25 50C38.8 50 50 38.8 50 25C50 11.2 38.8 0 25 0ZM25.4 37.29C23.85 37.29 22.4 37.05 20.99 36.69L16.24 39.52V34.27C14.5938 33.0788 13.2515 31.5164 12.3219 29.7095C11.3924 27.9025 10.9018 25.902 10.89 23.87C10.89 16.47 17.37 10.48 25.4 10.48C33.44 10.48 39.92 16.48 39.92 23.86C39.92 31.29 33.44 37.29 25.4 37.29V37.29Z" fill="#0284FE"/><path d="M26.79 28.06L22.93 24.32L16 28.06L23.62 20L27.43 23.65L34.55 20L26.79 28.06V28.06Z" fill="#0284FE"/></svg>